<svg aria-hidden="true" style="position: absolute; width: 0; height: 0; overflow: hidden;" version="1.1" xmlns="http://www.w3.org/2000/svg" xmlns:xlink="http://www.w3.org/1999/xlink">
<defs>
<symbol id="icon-button-mark" viewBox="0 0 22 32">
<path d="M4.38 0.002c-0.882 0.031-1.668 0.414-2.228 1.012l-0.002 0.002c-0.534 0.57-0.862 1.339-0.862 2.185 0 0.922 0.39 1.753 1.014 2.337l0.002 0.002 11.197 10.462-11.197 10.462c-0.626 0.586-1.015 1.416-1.015 2.338 0 0.845 0.328 1.614 0.863 2.186l-0.002-0.002c0.586 0.626 1.416 1.015 2.338 1.015 0.846 0 1.614-0.328 2.186-0.863l-0.002 0.002 13.7-12.8c0.625-0.586 1.015-1.416 1.015-2.338s-0.39-1.753-1.013-2.337l-0.002-0.002-13.7-12.8c-0.57-0.534-1.339-0.862-2.185-0.862-0.038 0-0.076 0.001-0.114 0.002l0.005-0z"></path>
</symbol>
</defs>
</svg>